<?xml version="1.0" encoding="UTF-8"?>
<svg width="229" height="229" viewBox="-15 -15 259 259" xmlns="http://www.w3.org/2000/svg">
  <!-- Grok Bot mark: official geometry from grokbot-animation (shape: capsule) -->
  <!-- App picker: horizontal-pill | Eyes: randomized contained knockouts (stable seed: horizontal-pill-purple) -->
  <g class="grok-bot-mark" data-official-id="capsule" data-picker-shape="horizontal-pill">
    <path class="grok-bot-mark__compound" fill="#6C6CCB" fill-rule="evenodd" d="M41.49 155.71L41.49 72.83C41.49 32.64 74.08 0.05 114.27 0.05C154.47 0.05 187.05 32.64 187.05 72.83L187.05 155.71C187.05 195.91 154.47 228.49 114.27 228.49C74.08 228.49 41.49 195.91 41.49 155.71Z M 91.94,72.95 A 5.27,12.15 -24 0,1 101.69,81.91 A 5.27,12.15 -24 0,1 101.82,95.15 A 5.27,12.15 -24 0,1 92.07,86.19 A 5.27,12.15 -24 0,1 91.94,72.95 Z M 123.68,72.95 A 5.27,12.15 -24 0,1 133.43,81.91 A 5.27,12.15 -24 0,1 133.56,95.15 A 5.27,12.15 -24 0,1 123.81,86.19 A 5.27,12.15 -24 0,1 123.68,72.95 Z"/>
  </g>
</svg>