<?xml version="1.0" encoding="UTF-8"?>
<svg width="229" height="229" viewBox="-15 -15 259 259" xmlns="http://www.w3.org/2000/svg">
  <!-- Grok Bot mark: official geometry from grokbot-animation (shape: wedge) -->
  <!-- App picker: rounded-triangle | Eyes: randomized contained knockouts (stable seed: rounded-triangle-brown) -->
  <g class="grok-bot-mark" data-official-id="wedge" data-picker-shape="rounded-triangle">
    <path class="grok-bot-mark__compound" fill="#8B6F47" fill-rule="evenodd" d="M77.26 42.06Q114.27 -22.05 151.28 42.06L216.15 154.43Q253.17 218.53 179.14 218.53L49.4 218.53Q-24.62 218.53 12.39 154.43Z M 93.47,96.70 A 5.53,11.06 -20 0,1 102.45,105.21 A 5.53,11.06 -20 0,1 101.03,117.49 A 5.53,11.06 -20 0,1 92.05,108.99 A 5.53,11.06 -20 0,1 93.47,96.70 Z M 124.07,96.70 A 5.53,11.06 -20 0,1 133.05,105.21 A 5.53,11.06 -20 0,1 131.63,117.49 A 5.53,11.06 -20 0,1 122.65,108.99 A 5.53,11.06 -20 0,1 124.07,96.70 Z"/>
  </g>
</svg>