<?xml version="1.0" encoding="UTF-8"?>
<svg width="229" height="229" viewBox="-15 -15 259 259" xmlns="http://www.w3.org/2000/svg">
  <!-- Grok Bot mark: official geometry from grokbot-animation (shape: wedge) -->
  <!-- App picker: rounded-triangle | Eyes: randomized contained knockouts (stable seed: rounded-triangle-teal) -->
  <g class="grok-bot-mark" data-official-id="wedge" data-picker-shape="rounded-triangle">
    <path class="grok-bot-mark__compound" fill="#0093A3" fill-rule="evenodd" d="M77.26 42.06Q114.27 -22.05 151.28 42.06L216.15 154.43Q253.17 218.53 179.14 218.53L49.4 218.53Q-24.62 218.53 12.39 154.43Z M 92.38,97.06 A 5.13,11.85 -24 0,1 101.89,105.80 A 5.13,11.85 -24 0,1 102.02,118.71 A 5.13,11.85 -24 0,1 92.51,109.97 A 5.13,11.85 -24 0,1 92.38,97.06 Z M 122.66,97.06 A 5.13,11.85 -24 0,1 132.17,105.80 A 5.13,11.85 -24 0,1 132.30,118.71 A 5.13,11.85 -24 0,1 122.79,109.97 A 5.13,11.85 -24 0,1 122.66,97.06 Z"/>
  </g>
</svg>